<svg width="13" height="12" viewBox="0 0 13 12" fill="none" xmlns="http://www.w3.org/2000/svg">
<path fill-rule="evenodd" clip-rule="evenodd" d="M6.25 11.6667C2.8 11.6667 0 9.05917 0 5.83333C0 2.61333 2.8 0 6.25 0C9.70625 0 12.5 2.61333 12.5 5.83333C12.5 9.05917 9.70625 11.6667 6.25 11.6667ZM8.24375 7.9975C8.31875 8.03833 8.4 8.06167 8.4875 8.06167C8.64375 8.06167 8.8 7.98583 8.8875 7.84583C9.01875 7.64167 8.95 7.37333 8.725 7.245L6.5 6.00833V3.31333C6.5 3.06833 6.2875 2.87583 6.03125 2.87583C5.775 2.87583 5.5625 3.06833 5.5625 3.31333V6.25917C5.5625 6.41083 5.65 6.55083 5.79375 6.6325L8.24375 7.9975Z" fill="#AB94FF"/>
</svg>
